/* XPM */
static char * buttonTick_xpm[] = {
"16 16 161 2",
"  	c None",
". 	c #686765",
"+ 	c #535251",
"@ 	c #424140",
"# 	c #535250",
"$ 	c #676664",
"% 	c #706E6D",
"& 	c #272626",
"* 	c #030303",
"= 	c #181918",
"- 	c #323332",
"; 	c #313331",
"> 	c #262625",
", 	c #6E6C6B",
"' 	c #5C5B59",
") 	c #0C0C0C",
"! 	c #30312F",
"~ 	c #9EA09B",
"{ 	c #D0D4CD",
"] 	c #D7DCD4",
"^ 	c #D4DAD2",
"/ 	c #C8CFC8",
"( 	c #969C96",
"_ 	c #2E302E",
": 	c #595857",
"< 	c #706F6D",
"[ 	c #0D0C0C",
"} 	c #50514F",
"| 	c #D2D4CE",
"1 	c #E0E2DC",
"2 	c #DFE1DB",
"3 	c #DDE0D9",
"4 	c #D9DED6",
"5 	c #D5DCD4",
"6 	c #D1D9D1",
"7 	c #C2CBC3",
"8 	c #4A4E4B",
"9 	c #6D6C6A",
"0 	c #282827",
"a 	c #2E2F2E",
"b 	c #D3D5CF",
"c 	c #E3E4DE",
"d 	c #E4E4DF",
"e 	c #E3E4DD",
"f 	c #DBDFD8",
"g 	c #D7DCD5",
"h 	c #D3DAD2",
"i 	c #BEC6BE",
"j 	c #B6BFB7",
"k 	c #2C2E2C",
"l 	c #6C6A68",
"m 	c #040404",
"n 	c #9B9E99",
"o 	c #E5E5DF",
"p 	c #E8E6E1",
"q 	c #E1E2DC",
"r 	c #DCDFD9",
"s 	c #D8DDD5",
"t 	c #A4A9A3",
"u 	c #171817",
"v 	c #797F7A",
"w 	c #8D978F",
"x 	c #565553",
"y 	c #171716",
"z 	c #CCCFC9",
"A 	c #D8DAD4",
"B 	c #DFE2DB",
"C 	c #AFB3AD",
"D 	c #151615",
"E 	c #292B29",
"F 	c #BCC8BF",
"G 	c #161716",
"H 	c #464543",
"I 	c #797C78",
"J 	c #141414",
"K 	c #AAABA7",
"L 	c #B9BCB6",
"M 	c #181817",
"N 	c #232422",
"O 	c #C9D4CB",
"P 	c #C3D0C6",
"Q 	c #2C2F2D",
"R 	c #464544",
"S 	c #2E2F2D",
"T 	c #BFC4BD",
"U 	c #303130",
"V 	c #A3A6A1",
"W 	c #DCDFD8",
"X 	c #CED2CC",
"Y 	c #1D1E1D",
"Z 	c #1F201E",
"` 	c #B6BDB6",
" .	c #CCD6CD",
"..	c #C8D3CA",
"+.	c #C3CFC5",
"@.	c #2C2F2C",
"#.	c #434241",
"$.	c #575654",
"%.	c #141514",
"&.	c #C7CEC6",
"*.	c #C6CBC4",
"=.	c #343533",
"-.	c #111111",
";.	c #ABAFA9",
">.	c #595B58",
",.	c #090909",
"'.	c #A9B0A9",
").	c #CDD7CE",
"!.	c #CAD5CB",
"~.	c #C6D3C9",
"{.	c #BAC7BD",
"].	c #141615",
"^.	c #545352",
"/.	c #6E6D6B",
"(.	c #909690",
"_.	c #D2D9D1",
":.	c #BEC5BD",
"<.	c #262725",
"[.	c #6E736E",
"}.	c #CDD6CD",
"|.	c #CAD5CC",
"1.	c #C7D3C9",
"2.	c #C5D2C8",
"3.	c #8A938C",
"4.	c #040303",
"5.	c #6B6A68",
"6.	c #2A2A29",
"7.	c #C1CAC1",
"8.	c #CFD7CF",
"9.	c #A7ADA7",
"0.	c #0E0F0E",
"a.	c #2D2F2D",
"b.	c #C7D1C8",
"c.	c #B9C5BC",
"d.	c #757472",
"e.	c #0E0D0D",
"f.	c #464946",
"g.	c #BDC7BE",
"h.	c #868D87",
"i.	c #A5AEA6",
"j.	c #454A46",
"k.	c #0D0D0D",
"l.	c #72716F",
"m.	c #61605E",
"n.	c #282B29",
"o.	c #8B938C",
"p.	c #BBC7BD",
"q.	c #C2CFC5",
"r.	c #BAC6BD",
"s.	c #5F5E5C",
"t.	c #767472",
"u.	c #131514",
"v.	c #2A2C2A",
"w.	c #2A2D2A",
"x.	c #2A2928",
"y.	c #747370",
"z.	c #716F6E",
"A.	c #595856",
"B.	c #484745",
"C.	c #585756",
"D.	c #706E6C",
"          . + @ @ # $           ",
"      % & * = - ; = * > ,       ",
"    ' ) ! ~ { ] ^ / ( _ ) :     ",
"  < [ } | 1 2 3 4 5 6 7 8 ) 9   ",
"  0 a b c d e 2 f g h i j k >   ",
"l m n 1 o p o q r s t u v w * . ",
"x y z A c o c B f C D E j F G + ",
"H _ I J K q 1 3 L M N j O P Q @ ",
"R S T U ) V W X Y Z `  ...+.@.#.",
"$.%.&.*.=.-.;.>.,.'.).!.~.{.].^.",
"/.m (._.:.<.D * [.}.|.1.2.3.4.5.",
"  6.E 7.8.9.0.a.b.!.1.2.c.E 0   ",
"  d.e.f.g.!.h.i...~.2.c.j.k.l.  ",
"    m.e.n.o.p.q.q.r.3.E k.s.    ",
"      t.6.m u.v.w.%.m x.y.      ",
"          z.A.B.B.C.D.          "};
