/* XPM */
static char * buttonSave_xpm[] = {
"16 16 106 2",
"  	c None",
". 	c #292929",
"+ 	c #494949",
"@ 	c #4E4E4E",
"# 	c #515151",
"$ 	c #353435",
"% 	c #404040",
"& 	c #3B3B3B",
"* 	c #1A1A1A",
"= 	c #191919",
"- 	c #2E2E2E",
"; 	c #333333",
"> 	c #444444",
", 	c #595959",
"' 	c #C3C3C3",
") 	c #E7E7E7",
"! 	c #F2F2F2",
"~ 	c #9B9A9B",
"{ 	c #C4C3C4",
"] 	c #AFAEAF",
"^ 	c #C4C4C4",
"/ 	c #ECECEC",
"( 	c #949394",
"_ 	c #8B8B8B",
": 	c #E0E0E0",
"< 	c #4D4D4D",
"[ 	c #535353",
"} 	c #B6B6B6",
"| 	c #888888",
"1 	c #AAAAAA",
"2 	c #989898",
"3 	c #D2D2D2",
"4 	c #FFFFFF",
"5 	c #7D7D7D",
"6 	c #DDDDDD",
"7 	c #A7A7A7",
"8 	c #595857",
"9 	c #B3B3B3",
"0 	c #E6E6E6",
"a 	c #818181",
"b 	c #A0A0A0",
"c 	c #8F908F",
"d 	c #828282",
"e 	c #787878",
"f 	c #DADADA",
"g 	c #A8A8A8",
"h 	c #656462",
"i 	c #505050",
"j 	c #B1B1B1",
"k 	c #7B7B7B",
"l 	c #979797",
"m 	c #878887",
"n 	c #747474",
"o 	c #D7D7D7",
"p 	c #A6A6A6",
"q 	c #4F4F4F",
"r 	c #ACACAC",
"s 	c #BABABA",
"t 	c #595A59",
"u 	c #6C6D6C",
"v 	c #616261",
"w 	c #5C5C5C",
"x 	c #6B6C6B",
"y 	c #515251",
"z 	c #666666",
"A 	c #D5D5D5",
"B 	c #A4A4A4",
"C 	c #919191",
"D 	c #757575",
"E 	c #707070",
"F 	c #6F6F6F",
"G 	c #767676",
"H 	c #B2B2B2",
"I 	c #A2A2A2",
"J 	c #A2A2A5",
"K 	c #868688",
"L 	c #686868",
"M 	c #4C4C4C",
"N 	c #474748",
"O 	c #E1E1E4",
"P 	c #BABABC",
"Q 	c #9E9E9E",
"R 	c #676767",
"S 	c #9C9C9C",
"T 	c #4B4B4B",
"U 	c #656565",
"V 	c #9A9A9A",
"W 	c #474747",
"X 	c #646464",
"Y 	c #464647",
"Z 	c #636363",
"` 	c #969696",
" .	c #484848",
"..	c #626262",
"+.	c #949494",
"@.	c #3F3F40",
"#.	c #CBCBCD",
"$.	c #A7A7A9",
"%.	c #575757",
"&.	c #848484",
"*.	c #2C2B2A",
"=.	c #403F3E",
"-.	c #3F3E3D",
";.	c #464544",
">.	c #4A4848",
",.	c #8F8D8B",
". + @ # $ % % & * = - ; >       ",
", ' ) ! ~ { { ] ^ / ( _ : <     ",
"[ } ) ! | 1 1 2 3 4 | 5 6 7 8   ",
"# 9 0 ! a b b c 3 4 d e f g h   ",
"i j 0 ! k l l m 3 4 5 n o p h   ",
"q r j s t u u v w x y z A B h   ",
"@ C D D E F F F F F F G H I h   ",
"< & J J J J J J J J J K L b h   ",
"M N O O O O O O O O O P L Q h   ",
"M N O O O O O O O O O P R S h   ",
"T N O O O O O O O O O P U V h   ",
"+ W O O O O O O O O O P X 2 h   ",
"+ Y O O O O O O O O O P Z ` h   ",
" .Y O O O O O O O O O P ..+.h   ",
"% @.#.#.#.#.#.#.#.#.#.$.%.&.h   ",
"*.=.-.-.-.-.-.-.-.-.-.-.;.>.,.  "};
